<svg xmlns="http://www.w3.org/2000/svg" viewBox="0 0 360 180"><path d="M149.763 98.27c.558-.275 1.05-.275 1.47 0 .42.282.348.702-.2 1.26-6.444 8.124-13.794 14.143-22.05 18.06-8.262 3.924-17.712 4.48-28.35 1.68-7.002-1.956-12.535-5.525-16.6-10.7-4.062-5.178-6.372-11.13-6.93-17.85-3.36 4.2-7.14 8.6-11.34 13.23s-8.682 7.212-13.44 7.77c-.84 0-1.824-.558-2.94-1.68a23.17 23.17 0 0 1-3.15-9.03c-.42-3.215-1.332-6.228-2.73-9.03-1.404-3.08-2.52-4.2-3.36-3.36s-1.962 2.664-3.36 5.46c-1.404 2.52-2.1 5.532-2.1 9.03v9.87c-.282 2.244-1.542 3.504-3.78 3.78-2.244.282-3.78-.695-4.62-2.94-2.52-6.996-4.2-13.998-5.04-21-.84-6.996-1.26-14.136-1.26-21.42 0-2.238 1.122-3.36 3.36-3.36s3.498 1.122 3.78 3.36a340.11 340.11 0 0 0 1.05 13.02 153.49 153.49 0 0 0 1.89 13.021c1.397-4.758 3.078-9.03 5.04-12.81 1.956-3.78 4.758-4.83 8.4-3.15 2.238 1.122 3.846 3.15 4.83 6.1.978 2.94 1.746 5.395 2.3 7.35.84 2.52 1.397 4.345 1.68 5.46.276 1.122.63 1.753 1.05 1.89.42.144.978-.138 1.68-.84.696-.695 1.9-1.47 3.57-2.3 3.635-1.956 7.14-4.896 10.5-8.82 3.36-3.917 6.438-7.278 9.24-10.08 1.116-1.115 2.3-1.26 3.57-.42s1.608 1.962 1.05 3.36c-1.122 5.04-.984 9.595.42 13.65 1.398 4.062 3.636 7.422 6.72 10.08 3.078 2.664 6.72 4.764 10.92 6.3 4.2 1.542 8.675 2.454 13.44 2.73 7.835.282 14.28-1.325 19.32-4.83 5.04-3.5 10.356-7.77 15.96-12.81z"/><path d="M225.36 99.53c.56-.84 1.262-1.05 2.102-.63s.977 1.194.42 2.3c-2.803 5.604-6.234 10.5-10.29 14.7-4.062 4.2-8.05 7.284-11.97 9.24-3.086 1.404-6.654 1.752-10.71 1.05-4.062-.695-7.213-2.73-9.45-6.1-1.963-3.078-3.434-6.228-4.4-9.45a107.62 107.62 0 0 0-3.57-9.87 129.72 129.72 0 0 0-8.61 12.391c-2.664 4.344-6.234 7.212-10.7 8.61-3.084.84-5.67.354-7.77-1.47-2.1-1.817-3.57-4.128-4.4-6.93-1.116-3.918-.768-7.98 1.05-12.18 1.824-4.2 4.338-7.835 7.56-10.92 3.216-3.078 6.858-5.25 10.92-6.5 4.056-1.26 8.046-.768 11.97 1.47 1.398.84 1.746 1.752 1.05 2.73-.703.984-1.754 1.194-3.15.63-2.803-.84-5.953-.2-9.45 1.9-3.504 2.1-6.5 4.83-9.03 8.2s-4.062 6.72-4.62 10.08c-.564 3.36.84 5.742 4.2 7.14 2.238.84 4.2.282 5.88-1.68 1.68-1.956 4.476-5.46 8.4-10.5 1.398-2.52 3.36-5.04 5.88-7.56.557-.558 1.26-.768 2.1-.63.84.145 1.398.492 1.68 1.05 1.115 3.084 2.52 6.582 4.2 10.5 1.68 3.924 3.707 7.212 6.1 9.87 2.375 2.665 5.314 4.062 8.82 4.2 3.496.145 7.625-2.165 12.39-6.93 2.52-2.52 4.97-4.83 7.35-6.93 2.375-2.098 4.41-4.683 6.088-7.768z"/><path d="M228.3 53.75c.275-1.68 1.26-2.448 2.94-2.3s2.796.913 3.36 2.3c.84 4.2 1.26 8.544 1.26 13.02 0 2.802-.072 5.532-.2 8.2-.145 2.665-.072 5.532.2 8.6 0 1.962.065 4.4.2 7.35.138 2.94.558 6.024 1.26 9.24.696 3.223 1.536 6.162 2.52 8.82.978 2.664 2.3 4.83 4 6.5 3.36 3.085 6.018 3.433 7.98 1.05 1.956-2.375 3.426-5.735 4.4-10.08a85.12 85.12 0 0 0 1.9-13.02l.42-7.35c.56-3.636 1.116-6.3 1.68-7.98.558-1.68 1.817-3.216 3.78-4.62 1.116-.558 2.166-.696 3.15-.42.978.282 1.607.84 1.9 1.68 1.956 5.04 2.94 10.435 2.94 16.17 0 5.742.558 11.13 1.68 16.17l1.9 6.5c.695 2.382 1.47 4.272 2.3 5.67.84 1.404 2.73 1.752 5.67 1.05 2.94-.695 4.4-3.006 4.4-6.93 1.115-20.436.695-40.878-1.26-61.32 0-.84.558-1.326 1.68-1.47 1.115-.138 1.817.2 2.1 1.05 1.398 5.04 2.376 11.34 2.94 18.9.558 7.56.84 15.402.84 23.52 0 6.444-.354 12.6-1.05 18.48-.702 5.88-2.172 10.782-4.4 14.7-.564.84-1.9 1.9-4 3.15s-3.714 1.752-4.83 1.47c-3.924-.558-6.93-2.375-9.03-5.46-2.1-3.077-3.715-6.857-4.83-11.34-1.122-4.476-1.9-9.24-2.3-14.28s-.63-9.66-.63-13.86c-1.122 4.2-2.034 9.102-2.73 14.7-.702 5.604-1.753 10.7-3.15 15.33-1.404 4.62-3.222 8.125-5.46 10.5-2.244 2.383-5.46 2.3-9.66-.2-3.084-1.955-5.67-4.62-7.77-7.98s-3.78-7.14-5.04-11.34-2.173-8.6-2.73-13.23c-.564-4.62-.84-9.306-.84-14.07 0-5.316.275-10.3.84-14.9.556-4.62 1.114-8.6 1.68-11.97zm97.435 24.78c3.918 2.52 6.72 6.444 8.4 11.76 1.68 5.322 2.1 10.5 1.26 15.54s-2.94 9.312-6.3 12.8-7.98 4.554-13.86 3.15c-2.802-.558-5.112-1.745-6.93-3.57-1.824-1.818-3.15-4-4-6.5s-1.26-5.178-1.26-7.98c0-2.796.42-5.46 1.26-7.98.558-1.68 1.47-3.78 2.73-6.3s2.867-4.758 4.83-6.72c1.955-1.956 4.056-3.498 6.3-4.62 2.237-1.116 4.476-1.26 6.72-.42.558-.001.84.28.84.84zm-6.72 36.54c4.2 0 7.206-1.9 9.03-5.67 1.817-3.78 2.73-7.35 2.73-10.7 0-3.636-.774-6.72-2.3-9.24-1.542-2.52-3.433-5.04-5.67-7.56-4.765 2.52-8.263 6.582-10.5 12.18-.84 1.68-1.47 3.715-1.9 6.1s-.42 4.692 0 6.93c.42 2.244 1.26 4.062 2.52 5.46 1.26 1.404 3.288 2.1 6.1 2.1v.42z"/></svg>