<svg xmlns="http://www.w3.org/2000/svg" viewBox="0 0 360 180"><path d="M45.13 96.478l-4.106 4.106v15.053l4.106 4.106h8.976v10.746h-6.843v-5.07h-6.24v7.205l4.106 4.105h11.2l4.025-4.025V117.7l-4.025-4.106h-9.056v-10.867h6.843v5.716h6.32v-7.85l-4.106-4.106zm35.135 0h-6.36l-6.56 34H64.85v6.24h10.827v-6.24h-2.334l.564-2.898h6.36l.563 2.898h-2.254v6.24H89.2v-6.24h-2.334l-6.602-34zm-5.152 25.116l1.972-10.264 2.053 10.264h-4.025zm33.792-4.387l-7.004-20.73h-8.2v6.24h2.133v27.772H93.7v6.24h10.626v-6.24h-1.77v-12.436l6.36 18.675h6.36v-34h2.133v-6.24h-10.64v6.24h2.134zm27.435-14.5h2.98v5.716h6.278V96.478h-24.834v11.955h6.36v-5.716h2.978v27.772h-2.254v6.24h10.747v-6.24h-2.254zm25.67-6.24h-6.36l-6.56 34h-2.495v6.24h10.828v-6.24h-2.335l.564-2.898h6.36l.564 2.898h-2.254v6.24h10.626v-6.24h-2.334l-6.603-34zm-5.152 25.116l1.972-10.264 2.053 10.264h-4.025zm33.082-25.116l-4.106 4.106v32.04l4.106 4.105h11.2l4.105-4.105v-7.85h-6.32v5.715h-6.843v-27.772h6.843v5.635h6.32v-7.768l-4.105-4.106zm28.258 6.24h2.255v-6.24h-10.747v6.24h2.133v27.772h-2.133v6.24h21.17v-11.954h-6.32v5.715h-6.36zm32.565-6.24h-6.36l-6.56 34h-2.495v6.24h10.828v-6.24h-2.335l.564-2.898h6.36l.564 2.898h-2.254v6.24H259.7v-6.24h-2.334l-6.603-34zm-5.152 25.116l1.972-10.264 2.053 10.264h-4.025zm36.327.766l3.984-3.944v-17.83l-4.106-4.106h-17.63v6.24h2.214v27.772h-2.214v6.24h10.747v-6.24h-2.174v-7.97h2.334l7.125 14.208h6.158v-6.24h-2.456l-3.983-8.13zm-2.335-6.078h-6.842v-13.564h6.842v13.564zm28.68-19.804h-6.36l-6.56 34h-2.496v6.24h10.827v-6.24h-2.334l.563-2.898h6.36l.563 2.898h-2.254v6.24h10.626v-6.24h-2.335l-6.6-34zm-5.152 25.116l1.972-10.264 2.053 10.264h-4.025z" fill="#792539"/><path d="M44.664 95.356L39.9 100.12v15.983l4.763 4.763h8.318v8.502h-4.598v-5.07H39.9v8.792l4.763 4.763h12.12l4.682-4.682v-15.937l-4.676-4.77h-8.405v-8.622h4.598v5.715h8.564v-9.436l-4.762-4.763h-12.12zm15.76 13.077h-6.32v-5.715h-6.842v10.867h9.056l4.025 4.106v15.013l-4.025 4.025h-11.2l-4.105-4.105v-7.205h6.24v5.07h6.842v-10.747H45.13l-4.105-4.105v-15.053l4.105-4.106h11.2l4.105 4.106v7.848zM81.2 95.356h-8.2l-6.56 34h-2.7v8.484H76.8v-8.484h-2.095l.127-.653h4.5l.127.653h-2.015v8.484h12.87v-8.484h-2.53l-6.6-34zm8 41.372H78.575v-6.24h2.254l-.563-2.898h-6.36l-.564 2.898h2.334v6.24H64.85v-6.24h2.495l6.56-34h6.36l6.6 34H89.2v6.24zm-14.077-15.134h4.025l-2.053-10.264-1.972 10.264zm2.656-1.122h-1.297l.635-3.308.662 3.308zm27.88-16.632h2.133v6.538l-5.076-15.022h-10.14v8.484H94.7v25.527h-2.133v8.484h12.87v-7.82l2.663 7.82h8.285v-34h2.133v-8.484h-12.87v8.484zm1.122-7.362h10.626v6.24h-2.133v34h-6.36l-6.36-18.675V130.5h1.77v6.24H93.7v-6.24h2.133v-27.772H93.7v-6.24h8.2l7.004 20.73v-14.5h-2.133v-6.24zm-1.56 32.9h-1.545v-4.535l1.545 4.535zm32.25-25.528h.734v5.715h8.524v-14.2h-27.08v14.2h8.604v-5.715h.734v25.527h-2.254v8.484h13v-8.484h-2.254V103.84zm1.132 26.65v6.24h-10.747v-6.24h2.254v-27.772h-2.98v5.715h-6.36V96.478h24.834v11.954h-6.28v-5.715h-2.98v27.772h2.255zm18.265-8.896h4.025l-2.053-10.264-1.972 10.264zm2.655-1.122h-1.297l.635-3.308.662 3.308zm3.42-25.116h-8.212l-6.56 34h-2.7v8.484h13.072v-8.484h-2.095l.127-.653h4.5l.127.653H159.2v8.484h12.87v-8.484h-2.53l-6.6-34zm8 41.372H160.32v-6.24h2.254L162 127.6h-6.36l-.564 2.898h2.335v6.24h-10.828v-6.24h2.495l6.56-34h6.36l6.6 34h2.334v6.24zm18.54-41.372l-4.763 4.763v32.97l4.763 4.763h12.12l4.762-4.763v-9.436h-8.564v5.715h-4.598V103.84h4.598v5.635h8.564v-9.356l-4.762-4.763h-12.12zm15.76 12.996h-6.32v-5.635h-6.843v27.772h6.843v-5.715h6.32v7.85l-4.105 4.105h-11.2l-4.106-4.105v-32.04l4.106-4.106h11.2l4.105 4.106v7.768zm18.2 21.015h-4.115V103.84h2.254v-8.484h-12.992v8.484h2.133v25.527h-2.133v8.484H232v-14.2h-8.564v5.715zm1.123-4.593h6.32v11.954h-21.17v-6.24h2.133v-27.772h-2.133v-6.24h10.747v6.24H218.2v27.772h6.36v-5.715zM251.7 95.356h-8.212l-6.56 34h-2.7v8.484H247.3v-8.484h-2.095l.127-.653h4.5l.127.653h-2.015v8.484h12.87v-8.484h-2.53l-6.6-34zm8 41.372h-10.626v-6.24h2.254l-.564-2.898h-6.36l-.564 2.898h2.335v6.24h-10.828v-6.24h2.495l6.56-34h6.36l6.6 34h2.334v6.24zm-14.1-15.134h4.025l-2.053-10.264-1.972 10.264zm2.656-1.122h-1.297l.635-3.308.662 3.308zM283.3 122.6l3.744-3.707V100.12l-4.763-4.763h-19.217v8.484h2.214v25.527h-2.214v8.484h12.992v-8.484h-2.174v-5.724h.52l7.125 14.208h7.974v-8.484h-2.878L283.3 122.6zm5.077 14.14h-6.158l-7.125-14.208h-2.334v7.97h2.174v6.24h-10.747v-6.24h2.214V102.72h-2.214v-6.24h17.63l4.106 4.106v17.83l-3.984 3.944 3.984 8.13h2.456v6.24zm-15.617-20.45h6.842v-13.564h-6.842v13.564zm1.122-12.44h4.597v11.32h-4.597v-11.32zm29.25 17.754h4.025l-2.053-10.264-1.972 10.264zm2.655-1.122h-1.296l.635-3.307.66 3.307zm10.013 8.895l-6.6-34h-8.212l-6.56 34h-2.692v8.484h13.072v-8.484h-2.095l.127-.653h4.5l.127.653h-2.015v8.484h12.87v-8.484H315.8zm1.4 7.36h-10.626v-6.24h2.254l-.563-2.898h-6.36l-.563 2.898h2.334v6.24H292.87v-6.24h2.496l6.56-34h6.36l6.6 34h2.335v6.24zm2.9-35.534h-.717v-3.998h-.02l-1.613 3.998h-.438l-1.566-3.998h-.023v3.998h-.717v-4.715h1.176l1.355 3.326 1.4-3.326h1.165v4.715zm-5.958-3.998h-1.545v3.998h-.718v-3.998h-1.545v-.716h3.808v.716z" fill="#a2a8af"/><path d="M199.716 73.486h-.414v-2.312h-.012l-.933 2.312h-.253l-.906-2.312h-.014v2.312h-.414V70.76h.68l.784 1.923.8-1.923h.674v2.726zm-3.444-2.3h-.893v2.312h-.415v-2.312h-.893v-.414h2.2v.414zm11.552-45.026V9.332H197.14v3.387l-3.388-3.387H173.65l-7.743 9.44v5.66h-7.72l-7.8 7.788v13.84l7.8 7.8h7.72v7.313l7.8 7.8h7.936v7.15h-20.55V69.67H150.4v14.383h10.684v-3.387l3.388 3.387h20.057l7.8-7.788v-7.312h7.72l7.8-7.8V52.6H197.14v8.403h-4.826V53.7l-7.8-7.8H176.6V32.4h5.04v6.4h10.684V24.45H181.64v3.385l-3.386-3.385H176.6v-7.17h20.55v8.87h10.682zM165.906 45.9h-4.825V32.38h4.825V45.9zm15.725 7.95v7.152h-5.04V53.85h5.04zm-53.46 95.238l4.82 12.894h-2.943l-.976-2.87h-4.82l-1 2.87h-2.854l4.876-12.894h2.908zm.162 7.9l-1.625-4.73h-.036l-1.68 4.73h3.34zm5.453-5.516v-2.384h10.564v2.384h-3.864v10.5h-2.835v-10.5h-3.865zm17.23-2.384v4.948h5.22v-4.948h2.835v12.894h-2.835v-5.562h-5.22v5.562h-2.835v-12.894h2.835zm15.728 0v10.5h6.284v2.384h-9.12v-12.894h2.835zm19.863 0v2.384h-6.808v2.763h6.248v2.203h-6.248v3.16h6.952v2.384h-9.787v-12.894h9.643zm3.395 2.384v-2.384h10.564v2.384H196.7v10.5h-2.835v-10.5H190zm17.228-2.384v12.894h-2.835v-12.894h2.835zm13.1 3.44a2.84 2.84 0 0 0-.632-.713c-.253-.205-.54-.364-.858-.48s-.652-.17-1.002-.17c-.638 0-1.18.123-1.625.37a3.08 3.08 0 0 0-1.084.993c-.276.415-.48.888-.604 1.418a7.07 7.07 0 0 0-.189 1.643c0 .542.063 1.068.2 1.58s.328.973.604 1.382a3.11 3.11 0 0 0 1.084.984c.445.246.987.37 1.625.37.867 0 1.544-.265 2.032-.795s.785-1.228.894-2.095h2.745c-.072.807-.26 1.535-.56 2.186s-.698 1.203-1.2 1.66-1.07.807-1.733 1.047-1.4.36-2.186.36c-.987 0-1.875-.172-2.663-.515s-1.454-.815-1.996-1.417-.957-1.3-1.246-2.122-.433-1.688-.433-2.628c0-.963.145-1.856.433-2.682a6.41 6.41 0 0 1 1.246-2.157 5.7 5.7 0 0 1 1.996-1.445c.79-.35 1.676-.523 2.663-.523a6.52 6.52 0 0 1 2.014.307c.632.205 1.198.503 1.697.895s.912.875 1.237 1.453.53 1.24.614 1.986h-2.745a2.34 2.34 0 0 0-.325-.894zm9.625 6.276c.156.3.364.545.623.73s.562.324.912.415a4.32 4.32 0 0 0 1.083.136c.253 0 .523-.02.812-.063s.56-.123.812-.244a1.77 1.77 0 0 0 .633-.496c.168-.2.253-.48.253-.804 0-.35-.112-.632-.335-.85s-.515-.397-.875-.542-.77-.27-1.23-.38l-1.4-.36c-.48-.12-.95-.268-1.408-.442a4.81 4.81 0 0 1-1.228-.678 3.2 3.2 0 0 1-.876-1.038c-.223-.415-.334-.918-.334-1.508 0-.662.14-1.237.424-1.725a3.96 3.96 0 0 1 1.1-1.22c.447-.326.976-.565 1.554-.723a6.54 6.54 0 0 1 1.733-.234c.674 0 1.32.075 1.94.226s1.17.395 1.652.73a3.71 3.71 0 0 1 1.146 1.291c.282.523.424 1.16.424 1.905h-2.744c-.024-.385-.105-.704-.244-.957a1.6 1.6 0 0 0-.551-.596 2.43 2.43 0 0 0-.785-.308 4.86 4.86 0 0 0-.967-.09 3.33 3.33 0 0 0-.686.072c-.23.048-.437.133-.623.253a1.55 1.55 0 0 0-.461.451c-.12.18-.18.4-.18.687 0 .253.048.457.145.613s.286.302.57.434.674.266 1.174.397l1.96.506c.24.048.575.135 1.002.262a4.8 4.8 0 0 1 1.273.604c.42.277.785.647 1.093 1.1s.46 1.056.46 1.778a3.94 3.94 0 0 1-.343 1.644c-.23.506-.57.942-1.02 1.3s-1 .653-1.68.858-1.44.307-2.32.307a8.12 8.12 0 0 1-2.067-.262c-.668-.175-1.258-.448-1.77-.82s-.918-.85-1.22-1.427-.446-1.265-.434-2.06h2.745c.006.436.084.803.24 1.104z" fill="#792539"/></svg>